ply
format ascii 1.0
comment VCGLIB generated
element vertex 170
property float x
property float y
property float z
property float nx
property float ny
property float nz
element face 332
property list uchar int vertex_indices
end_header
75.3841 -39.091 63.3486 5.29021 -2.83701 0.989719 
14.2644 -8.36793 2.38966 -0.261641 0.0760553 -6.27151 
-57.3658 14.7621 99.856 -1.48964 5.65361 2.00488 
-3.9368 -62.9327 25.5287 -2.44314 -5.64216 -0.355907 
-80.2188 3.54112 98.2361 -3.98579 4.71097 0.459422 
-67.3912 3.11924 40.187 -3.51588 2.82028 -3.93543 
-60.7727 -53.5202 94.7003 0.847027 -5.86186 -0.563946 
84.4101 -23.673 49.8258 5.31033 -1.10816 2.55489 
-24.3832 16.0995 23.858 -3.12282 4.52315 -0.193484 
-40.9463 -52.1588 40.5571 -1.53875 -5.71851 -1.83133 
-43.6831 24.5382 60.3692 -1.31752 5.91501 -1.07885 
12.7174 28.6757 86.3451 0.185904 5.17002 3.55027 
31.4475 6.85575 114.253 0.959473 3.12728 4.81701 
56.6258 -48.9369 91.8592 3.22863 -4.06468 2.98523 
-50.788 -57.9085 76.9826 -0.413222 -5.97342 0.787053 
38.4834 -9.3462 0.0429433 0.149242 0.224298 -6.21107 
-10.1731 44.6884 55.3089 -2.30394 4.70967 0.238804 
-65.5273 11.8453 138.554 0.11696 4.41364 -0.939781 
-96.8352 -25.7672 121.968 -5.96083 0.565493 0.580787 
13.1136 44.1206 67.3094 0.5545 5.30762 1.98915 
-67.1894 52.2363 152.699 -0.285621 1.09212 -2.14034 
-42.561 -4.77501 161.59 -0.942279 -0.219713 3.43132 
54.732 7.16654 102.7 3.17243 3.06346 3.81148 
7.99311 -27.6121 2.72545 -0.0715278 -0.130879 -6.27331 
22.3535 11.0887 2.35321 0.0539078 0.715628 -6.2077 
48.604 -11.8745 115.037 2.78667 0.732118 5.0719 
60.8709 -1.03003 4.40526 2.13038 2.07808 -5.08646 
44.1874 12.6619 2.27725 1.5019 2.01678 -5.14705 
-39.7454 -15.2837 0.0595924 0.55344 -0.905485 -5.20474 
-96.1578 -41.7067 106.449 -5.32927 -1.23088 -1.48602 
-13.9283 6.23909 110.38 -0.0218726 3.03644 5.36066 
-74.4408 -62.9967 130.842 -0.0608749 -4.36902 2.19077 
-47.9908 -23.9792 22.6111 -4.74781 -1.02573 -1.28207 
4.94116 29.1457 178.563 -1.04469 0.92848 -0.346197 
61.0968 -56.1301 70.2193 3.75765 -4.46453 1.18979 
-11.3961 -17.5982 1.73245 0.150205 0.0362103 -6.27603 
-94.2876 -12.8122 104.302 -5.52766 1.9203 -0.471086 
-77.1435 12.2578 76.8865 -3.83718 4.42884 0.440972 
32.2386 -33.1481 0.931346 0.00369887 -0.642439 -6.19481 
90.7052 -23.5458 16.0139 3.98554 -0.965418 -3.10343 
-92.5764 -24.9606 143.561 -4.14643 0.328253 2.98215 
-57.6662 21.9252 78.2985 -1.89796 5.69716 0.831664 
-73.3753 53.0913 174.59 -1.38879 0.797664 0.922123 
-56.2603 4.68245 4.42869 -1.25136 2.01805 -1.5099 
-33.21 -32.9124 114.9 2.83069 -3.0454 4.30783 
-21.5592 -52.8729 23.4398 -2.30886 -5.47634 0.610045 
-88.3374 -3.38962 124.671 -4.58836 3.59171 0.753172 
-90.4501 -8.50475 76.4099 -5.64683 1.63146 -0.536768 
-90.3143 -27.7648 90.3241 -5.98436 -1.06558 -1.20969 
-1.55159 17.2102 166.145 0.45409 -1.25377 0.489907 
33.98 21.332 96.9867 1.22047 4.93651 3.40429 
-85.6018 -17.7376 52.7442 -5.03171 0.0972304 -2.85875 
69.5965 8.22582 23.4756 3.77933 4.48139 -1.8891 
-27.2156 -54.0357 86.4189 -0.314527 -5.75531 2.36979 
-37.1405 24.3897 86.2109 -0.873289 5.84864 1.68995 
68.7358 -15.3198 96.6052 4.8587 0.25528 3.39212 
-8.28684 -45.382 2.62963 0.207911 -0.533096 -6.25015 
-26.8434 -35.3484 0.236092 -0.18724 0.0172151 -6.12586 
-41.0892 -15.2223 134.221 5.55532 -0.308182 1.30241 
-65.795 -7.42699 4.06155 -1.49859 -0.162724 -0.650739 
-12.9709 23.4022 93.5882 -0.536701 5.18504 3.33506 
56.2553 -33.1856 107.61 3.34525 -2.02678 4.15787 
27.6042 -72.4104 69.0392 1.07516 -5.45452 1.84746 
74.8587 -16.6508 4.61648 2.39165 0.125714 -5.06623 
53.1567 22.4898 17.1476 3.40914 4.0871 -2.72015 
-5.10849 8.24576 3.02695 -0.0289172 0.375316 -6.26521 
-52.6372 -2.77626 24.7923 -4.83824 2.15698 -1.58725 
12.6812 -48.3058 108.312 -0.489617 -4.27879 4.05769 
-45.7922 0.499533 142.379 2.46232 4.82514 -0.204817 
-60.32 22.5153 156.995 3.49202 -0.584879 1.56941 
-30.5261 11.1676 159.143 -1.15175 3.48935 -0.836427 
7.53853 -63.0721 4.93031 0.0860708 -3.41591 -3.68586 
-11.5296 -20.0079 115.513 -0.264637 -0.643662 6.10953 
-33.2282 -54.9371 3.71584 -0.971861 -3.32928 -2.35654 
-77.738 -40.1512 50.8414 -3.90587 -2.89762 -2.97966 
-49.9709 -24.0793 150.8 2.57139 -2.34388 4.1496 
75.2459 -41.7857 37.5126 3.99818 -4.69117 0.3202 
21.7685 -75.0296 47.5627 0.479744 -5.97569 -0.363448 
-41.4972 -47.0678 101.613 1.64851 -5.42523 2.2819 
-59.4476 -46.3605 145.417 2.22597 -3.08076 3.5498 
62.4898 -54.9997 48.7443 4.09792 -4.65123 -0.301151 
56.8408 -29.2714 1.26448 1.36396 -1.10372 -5.6883 
46.8526 32.8863 33.6922 2.91279 5.19495 -1.05731 
16.7368 -70.8648 25.2006 -0.212062 -5.71413 -1.74413 
86.4837 -1.47844 19.233 3.35673 3.1545 -1.95116 
-74.149 34.0056 166.08 -1.90741 -0.663996 1.8041 
-71.5705 -26.264 153.751 -0.815658 -0.519759 5.64054 
-53.9781 -34.9153 3.72478 -3.18981 -0.35568 -1.92 
-62.1354 -2.99476 152.501 0.235764 1.15346 5.39572 
70.945 3.68204 84.9687 4.77874 2.43225 2.32816 
-56.1462 -17.1881 4.68985 -3.44784 -0.920088 -2.24554 
45.1693 -67.8141 53.2158 2.7221 -5.43896 0.0696861 
-48.5753 4.72597 120.924 2.33585 4.97362 2.25354 
-41.5995 9.37156 6.18902 -2.76923 3.34551 -2.85788 
-82.1706 3.1414 56.8822 -4.54091 2.70343 -2.07107 
42.0722 -62.2138 80.3525 1.83558 -5.2515 2.53258 
-69.6721 -67.0247 108.039 0.953595 -4.164 -1.05274 
30.9659 -58.3447 5.05964 1.08452 -3.14852 -4.24608 
-54.5685 -53.6902 4.55607 -1.19464 -1.05419 -0.433259 
-28.7239 24.0926 3.96731 -1.62019 2.37066 -1.60692 
6.04218 -2.66046 117.422 -0.822567 1.80811 5.7196 
54.9955 21.0302 82.2897 3.11829 4.68323 2.28714 
-4.1246 22.1757 187.227 -0.300239 -0.212525 0.0134128 
31.4466 40.3658 52.256 2.07377 5.76553 0.31447 
-62.0347 66.2729 164.004 -0.627981 1.29997 -0.226984 
-12.9438 -41.7991 105.956 -0.551954 -4.06399 4.59015 
-11.0689 36.5442 31.8754 -3.32778 4.86331 -1.22993 
-67.9317 33.437 146.251 -0.266023 0.947788 -2.4879 
-74.4657 14.6084 155.806 -2.86927 -0.241688 1.84471 
-12.7974 -65.9701 5.03723 -0.734986 -2.97543 -1.72417 
57.2127 -55.2642 27.6234 3.4361 -4.98198 -1.44225 
-13.3508 6.31574 158.409 1.92142 -0.779487 -0.298297 
-64.6878 18.7812 55.6309 -2.47521 4.789 -1.81883 
79.4829 -12.3484 69.5354 5.82839 0.528667 1.53324 
31.4013 29.5101 8.11827 1.33644 3.78906 -3.80059 
-46.2257 -36.5067 131.769 4.8449 -2.90926 2.53505 
96.815 -12.5566 36.1026 4.02139 1.17163 1.03519 
-64.7806 69.0065 179.55 -1.02135 0.643013 -0.293475 
15.3996 -46.0662 3.05117 -0.033736 -0.595952 -6.24857 
93.0084 -33.5333 32.939 3.60483 -2.70982 0.49212 
-36.006 -57.9984 61.6514 -0.459542 -6.16359 -0.500477 
-59.3172 -39.5269 37.0017 -3.41303 -3.14029 -3.99929 
-69.927 -19.2802 35.8276 -3.87194 -0.369587 -4.5251 
-33.9857 14.2467 106.976 0.234852 4.55608 3.91077 
36.2485 -50.4794 101.971 1.29356 -4.68509 3.68974 
-81.5222 -5.24448 146.116 -3.8001 2.01547 3.35996 
25.4406 -14.0699 121.878 0.363028 0.464113 5.83842 
6.81738 38.476 19.4638 -0.142673 5.65351 -2.22047 
-81.5592 -45.3189 146.55 -2.0524 -2.4938 4.22535 
-44.9582 14.2479 38.2554 -2.37337 5.12882 -2.54633 
-24.343 24.4578 45.8238 -3.31241 4.80419 -1.57127 
-59.7969 43.7135 163.872 3.89287 -0.383848 1.31057 
73.4737 -40.1288 15.178 3.075 -3.80055 -3.07542 
33.8949 32.9597 75.398 1.79269 5.38362 2.44076 
-55.6641 -52.9435 120.119 3.88835 -4.64544 1.19333 
-17.7588 -55.8511 44.9915 -2.28751 -5.42153 -0.971001 
-75.0388 -51.1129 72.1148 -3.15249 -4.94605 -0.742642 
-27.9087 2.39176 172.483 -0.594016 -0.978032 2.24415 
-5.73539 35.9726 75.6927 -1.50553 5.10268 3.03577 
-92.3554 -49.1168 129.343 -4.74481 -2.48462 1.93275 
-70.9251 8.13664 118.538 -1.81875 5.75195 0.23343 
-24.6587 -2.10141 1.2665 0.164322 0.235438 -6.25254 
38.3786 -67.3115 28.5424 2.19467 -5.41591 -1.66483 
33.9064 -34.8591 117.829 1.18915 -2.32927 5.0496 
72.224 -34.7179 84.1487 5.07395 -2.04491 2.19899 
8.22867 45.4513 42.9997 0.0393171 5.90303 -0.903147 
-44.1116 -45.5431 20.4913 -3.82804 -4.105 0.445379 
8.24869 -29.7073 118.746 -0.970303 -1.6344 5.65778 
-15.8341 13.6625 177.911 1.29898 -1.57639 1.16665 
-28.8475 -4.30662 151.198 3.0149 -1.35808 -1.42967 
8.33579 27.1875 2.68392 0.181698 2.49349 -4.88267 
64.5341 19.5632 41.8325 4.34825 4.34588 -0.63498 
-1.20294 -71.687 48.6872 -2.46751 -5.3061 -0.584682 
-89.3947 -33.0731 69.8005 -5.35315 -1.84852 -1.06425 
18.3576 -59.8535 87.433 0.0353807 -5.26701 3.40217 
52.4685 29.5853 59.4937 3.22298 5.12911 0.80646 
-30.0469 -8.8971 118.513 2.59286 1.41298 5.26247 
80.1967 -0.61461 43.3865 4.90982 3.46763 1.04129 
-13.574 31.6301 6.06421 -1.46532 3.20242 -2.65733 
26.1657 38.8792 28.9741 1.4819 5.80366 -1.57959 
5.04064 -72.406 70.6958 -1.20563 -5.18005 1.89972 
-14.7826 -61.9619 67.5725 -2.23984 -5.67184 0.828609 
-23.6552 29.5312 67.9498 -2.41613 5.57786 0.765179 
-89.5659 -62.0237 110.62 -2.97198 -3.3268 -0.791073 
-3.94704 -56.3085 89.1568 -1.21007 -5.23307 3.20706 
9.42122 16.3021 105.425 -0.264056 4.38554 4.27416 
-60.1293 -55.6251 55.4957 -1.81512 -5.08308 -1.82306 
49.7366 -50.6228 6.99674 2.02147 -3.24144 -4.10086 
71.8453 12.4417 63.298 4.77573 3.49115 0.818191 
-80.8659 -49.9152 92.8853 -3.354 -4.2112 -2.50224 
3 82 155 151 
3 137 70 21 
3 0 34 80 
3 66 32 122 
3 69 107 131 
3 149 75 58 
3 49 102 33 
3 8 158 99 
3 42 104 20 
3 159 145 103 
3 145 127 106 
3 94 37 112 
3 125 108 17 
3 144 13 34 
3 80 76 0 
3 162 54 60 
3 40 128 86 
3 71 56 118 
3 167 110 142 
3 119 7 76 
3 20 85 42 
3 77 152 83 
3 68 149 58 
3 127 158 106 
3 161 152 160 
3 56 23 118 
3 36 47 48 
3 150 24 65 
3 97 83 71 
3 119 39 116 
3 42 117 104 
3 145 19 103 
3 144 34 0 
3 161 135 152 
3 57 73 98 
3 60 123 30 
3 156 123 92 
3 70 149 68 
3 78 14 53 
3 105 53 164 
3 16 19 145 
3 107 69 17 
3 118 23 38 
3 166 121 9 
3 94 112 5 
3 156 58 44 
3 37 41 112 
3 122 121 74 
3 168 113 157 
3 163 29 169 
3 118 97 71 
3 130 162 16 
3 64 151 52 
3 139 31 128 
3 118 38 97 
3 91 142 110 
3 146 98 73 
3 158 127 150 
3 131 20 104 
3 7 113 0 
3 140 92 2 
3 82 114 159 
3 162 10 54 
3 36 18 46 
3 108 107 17 
3 161 164 53 
3 61 55 25 
3 10 130 129 
3 165 100 12 
3 51 74 153 
3 6 169 136 
3 133 50 101 
3 44 134 78 
3 162 138 16 
3 87 98 146 
3 44 78 105 
3 88 69 108 
3 29 139 18 
3 107 85 20 
3 123 54 2 
3 159 127 145 
3 71 109 56 
3 110 80 91 
3 26 64 52 
3 81 38 15 
3 133 155 103 
3 120 166 9 
3 113 7 157 
3 160 152 77 
3 58 75 115 
3 87 146 32 
3 68 21 70 
3 59 90 66 
3 87 141 35 
3 7 0 76 
3 25 126 143 
3 32 90 87 
3 38 1 15 
3 34 13 95 
3 151 168 157 
3 50 12 22 
3 123 2 92 
3 116 7 119 
3 102 148 49 
3 38 167 97 
3 25 22 12 
3 159 103 82 
3 135 161 120 
3 130 8 129 
3 6 78 134 
3 144 113 55 
3 94 51 47 
3 73 56 109 
3 31 163 96 
3 52 151 157 
3 28 99 141 
3 21 68 88 
3 28 141 87 
3 63 84 39 
3 129 5 112 
3 131 107 20 
3 89 113 168 
3 86 128 79 
3 37 47 4 
3 111 70 148 
3 148 111 49 
3 140 4 46 
3 8 130 106 
3 9 146 45 
3 37 2 41 
3 158 8 106 
3 27 64 26 
3 88 17 69 
3 121 146 9 
3 35 1 23 
3 124 95 13 
3 88 108 125 
3 101 50 22 
3 136 169 153 
3 139 29 163 
3 59 66 43 
3 144 55 61 
3 38 81 167 
3 89 168 101 
3 57 35 56 
3 149 111 137 
3 50 133 11 
3 86 88 125 
3 48 29 36 
3 131 42 85 
3 80 34 91 
3 121 122 32 
3 72 147 100 
3 60 138 162 
3 11 19 138 
3 27 15 24 
3 129 8 93 
3 147 143 126 
3 139 163 31 
3 26 81 15 
3 43 90 59 
3 141 99 65 
3 44 105 72 
3 3 83 152 
3 169 48 153 
3 163 169 96 
3 67 143 147 
3 162 130 10 
3 110 167 132 
3 62 95 154 
3 61 25 143 
3 4 2 37 
3 105 147 72 
3 44 115 134 
3 93 43 66 
3 29 18 36 
3 115 44 58 
3 64 82 151 
3 134 31 96 
3 5 122 51 
3 11 165 50 
3 63 132 81 
3 146 121 32 
3 84 26 52 
3 93 99 28 
3 143 67 124 
3 60 54 123 
3 160 164 161 
3 19 16 138 
3 156 44 72 
3 46 40 125 
3 46 18 40 
3 111 148 137 
3 89 101 22 
3 31 79 128 
3 15 1 24 
3 24 114 27 
3 3 109 71 
3 119 76 132 
3 55 89 22 
3 51 94 5 
3 50 165 12 
3 17 140 46 
3 43 93 90 
3 78 53 105 
3 91 62 77 
3 29 48 169 
3 139 128 40 
3 10 112 41 
3 91 95 62 
3 62 160 77 
3 38 23 1 
3 54 41 2 
3 147 126 100 
3 92 140 17 
3 101 155 133 
3 25 55 22 
3 100 30 72 
3 136 153 74 
3 12 100 126 
3 90 32 66 
3 85 69 131 
3 149 70 111 
3 60 165 11 
3 144 61 13 
3 45 109 3 
3 131 104 42 
3 97 167 142 
3 12 126 25 
3 156 72 30 
3 65 35 141 
3 75 21 88 
3 14 120 53 
3 6 96 169 
3 4 36 46 
3 146 73 45 
3 84 157 116 
3 153 47 51 
3 124 154 95 
3 160 62 154 
3 161 53 120 
3 114 150 127 
3 99 93 8 
3 115 79 134 
3 127 159 114 
3 75 88 86 
3 78 6 14 
3 137 148 70 
3 35 65 1 
3 168 155 101 
3 114 64 27 
3 164 154 67 
3 153 48 47 
3 58 156 92 
3 89 55 113 
3 66 129 93 
3 164 67 105 
3 3 71 83 
3 79 115 75 
3 120 14 166 
3 110 132 76 
3 66 5 129 
3 134 96 6 
3 2 4 140 
3 26 63 81 
3 158 150 65 
3 149 21 75 
3 106 130 16 
3 10 129 112 
3 67 154 124 
3 85 107 108 
3 145 106 16 
3 133 103 19 
3 6 136 14 
3 147 105 67 
3 37 94 47 
3 155 82 103 
3 77 142 91 
3 56 35 23 
3 139 40 18 
3 74 166 136 
3 28 87 90 
3 17 68 92 
3 7 116 157 
3 143 124 61 
3 30 100 165 
3 88 68 17 
3 87 35 57 
3 54 10 41 
3 45 73 109 
3 84 52 157 
3 84 63 26 
3 137 21 149 
3 39 84 116 
3 51 122 74 
3 114 24 150 
3 154 164 160 
3 132 167 81 
3 28 90 93 
3 120 9 135 
3 39 132 63 
3 30 165 60 
3 87 57 98 
3 134 79 31 
3 45 135 9 
3 36 4 47 
3 151 155 168 
3 11 138 60 
3 58 92 68 
3 119 132 39 
3 136 166 14 
3 76 80 110 
3 91 34 95 
3 152 135 3 
3 46 125 17 
3 69 85 108 
3 15 27 26 
3 83 142 77 
3 122 5 66 
3 83 97 142 
3 135 45 3 
3 74 121 166 
3 156 30 123 
3 133 19 11 
3 0 113 144 
3 24 1 65 
3 79 75 86 
3 86 125 40 
3 124 13 61 
3 73 57 56 
3 158 65 99 
3 64 114 82 
